<svg width="500" height="500" viewBox="0 0 500 500" fill="none" xmlns="http://www.w3.org/2000/svg">
<g clip-path="url(#clip0_278_3029)">
<rect width="500" height="500" fill="white"/>
<circle cx="270" cy="30" r="30" fill="#4857EC" fill-opacity="0.2"/>
<path d="M265.518 37.5H259.688C259.414 37.5 259.189 37.4122 259.013 37.2366C258.838 37.0609 258.75 36.8363 258.75 36.5625V20.625H256.875C256.601 20.625 256.377 20.5372 256.201 20.3616C256.025 20.1859 255.938 19.9613 255.938 19.6875C255.938 19.4137 256.025 19.1891 256.201 19.0134C256.377 18.8378 256.601 18.75 256.875 18.75H283.125C283.399 18.75 283.623 18.8378 283.799 19.0134C283.975 19.1891 284.062 19.4137 284.062 19.6875C284.062 19.9613 283.975 20.1859 283.799 20.3616C283.623 20.5372 283.399 20.625 283.125 20.625H281.25V36.5625C281.25 36.8363 281.162 37.0609 280.987 37.2366C280.811 37.4122 280.586 37.5 280.312 37.5H274.482L277.734 43.125H275.566L272.314 37.5H267.684L264.432 43.125H262.264L265.518 37.5ZM279.375 20.625H260.625V35.625H279.375V20.625ZM265.049 30.6741C264.853 30.8497 264.629 30.9375 264.375 30.9375C264.121 30.9375 263.902 30.8447 263.716 30.6591C263.53 30.4734 263.438 30.2537 263.438 30C263.438 29.7463 263.525 29.5216 263.701 29.3259L268.037 25.0191L271.699 27.7734L274.892 23.7891C275.126 23.4959 275.424 23.3738 275.785 23.4225C276.147 23.4713 276.391 23.6666 276.517 24.0084C276.644 24.3503 276.591 24.6678 276.356 24.9609L272.049 30.3516L268.211 27.48L265.049 30.6741Z" fill="#08080A" fill-opacity="0.96"/>
<circle cx="30" cy="30" r="30" fill="#48EC9D" fill-opacity="0.2"/>
<path d="M20.1271 40.0781L24.0825 38.76L24.7856 39.0825C26.3875 39.9031 28.1259 40.3134 30.0009 40.3134C33.1846 40.2159 35.8359 39.1759 37.9546 37.1934C40.0734 35.2109 41.1721 32.8134 41.2509 30.0009C41.1728 27.1884 40.074 24.7909 37.9546 22.8084C35.8353 20.8259 33.184 19.7859 30.0009 19.6884C26.8171 19.7859 24.1659 20.8259 22.0471 22.8084C19.9284 24.7909 18.8296 27.1884 18.7509 30.0009C18.7509 31.0165 18.9268 32.0225 19.2787 33.0187C19.6306 34.015 20.1481 34.9525 20.8312 35.8312L21.4762 36.6806L20.1271 40.0781ZM18.779 42.4809C18.4078 42.5984 18.0903 42.5153 17.8265 42.2315C17.5628 41.9478 17.4993 41.6206 17.6362 41.25L19.3359 36.9721C18.5546 35.9371 17.949 34.8287 17.519 33.6468C17.089 32.465 16.874 31.249 16.874 29.999C16.9521 26.7765 18.2021 23.969 20.624 21.5765C23.0459 19.184 26.1709 17.929 29.999 17.8115C33.8271 17.929 36.9521 19.184 39.374 21.5765C41.7959 23.969 43.0459 26.7765 43.124 29.999C43.0459 33.2215 41.7959 36.029 39.374 38.4215C36.9521 40.814 33.8271 42.069 29.999 42.1865C27.8703 42.1865 25.8487 41.7178 23.9343 40.7803L18.779 42.4809ZM30 31.4943C29.7262 31.4943 29.4771 31.4309 29.2528 31.304C29.0284 31.1771 28.8478 30.9915 28.7109 30.7471C28.574 30.5028 28.5056 30.2537 28.5056 30C28.5056 29.7462 28.574 29.4971 28.7109 29.2528C28.8478 29.0084 29.0284 28.8228 29.2528 28.6959C29.4771 28.569 29.7262 28.5056 30 28.5056C30.43 28.5056 30.7865 28.6471 31.0696 28.9303C31.3528 29.2134 31.4943 29.57 31.4943 30C31.4943 30.43 31.3528 30.7865 31.0696 31.0696C30.7865 31.3528 30.43 31.4943 30 31.4943V31.4943ZM35.625 31.4943C35.3512 31.4943 35.1021 31.4309 34.8778 31.304C34.6534 31.1771 34.4728 30.9915 34.3359 30.7471C34.199 30.5028 34.1306 30.2537 34.1306 30C34.1306 29.7462 34.199 29.4971 34.3359 29.2528C34.4728 29.0084 34.6534 28.8228 34.8778 28.6959C35.1021 28.569 35.3512 28.5056 35.625 28.5056C36.055 28.5056 36.4115 28.6471 36.6946 28.9303C36.9778 29.2134 37.1193 29.57 37.1193 30C37.1193 30.43 36.9778 30.7865 36.6946 31.0696C36.4115 31.3528 36.055 31.4943 35.625 31.4943V31.4943ZM24.375 31.4943C24.1012 31.4943 23.8521 31.4309 23.6278 31.304C23.4034 31.1771 23.2228 30.9915 23.0859 30.7471C22.949 30.5028 22.8806 30.2537 22.8806 30C22.8806 29.7462 22.949 29.4971 23.0859 29.2528C23.2228 29.0084 23.4034 28.8228 23.6278 28.6959C23.8521 28.569 24.1012 28.5056 24.375 28.5056C24.805 28.5056 25.1615 28.6471 25.4446 28.9303C25.7278 29.2134 25.8693 29.57 25.8693 30C25.8693 30.43 25.7278 30.7865 25.4446 31.0696C25.1615 31.3528 24.805 31.4943 24.375 31.4943V31.4943Z" fill="#08080A" fill-opacity="0.96"/>
<circle cx="110" cy="29" r="30" fill="#8DFF33" fill-opacity="0.2"/>
<path d="M110 29C111.602 28.9606 112.93 28.4138 113.984 27.3594C115.039 26.305 115.586 24.9769 115.625 23.375C115.586 21.7731 115.039 20.445 113.984 19.3906C112.93 18.3362 111.602 17.7894 110 17.75C108.398 17.7894 107.07 18.3362 106.016 19.3906C104.961 20.445 104.414 21.7731 104.375 23.375C104.414 24.9769 104.961 26.305 106.016 27.3594C107.07 28.4138 108.398 28.9606 110 29ZM110 30.875C107.871 30.8162 106.104 30.0838 104.697 28.6775C103.291 27.2713 102.559 25.5037 102.5 23.375C102.559 21.2463 103.291 19.4787 104.697 18.0725C106.104 16.6662 107.871 15.9338 110 15.875C112.129 15.9338 113.896 16.6662 115.303 18.0725C116.709 19.4787 117.441 21.2463 117.5 23.375C117.441 25.5037 116.709 27.2713 115.303 28.6775C113.896 30.0838 112.129 30.8162 110 30.875ZM110 29C110.274 29 110.498 29.0878 110.674 29.2634C110.85 29.4391 110.938 29.6638 110.938 29.9375V37.4375C110.938 37.7112 110.85 37.9359 110.674 38.1116C110.498 38.2872 110.274 38.375 110 38.375C109.726 38.375 109.502 38.2872 109.326 38.1116C109.15 37.9359 109.062 37.7112 109.062 37.4375V29.9375C109.062 29.6638 109.15 29.4391 109.326 29.2634C109.502 29.0878 109.726 29 110 29V29ZM106.25 33.0134V34.9175C104.551 35.2106 103.193 35.5962 102.178 36.0744C101.162 36.5525 100.644 37.0066 100.625 37.4366C100.684 38.0422 101.587 38.6525 103.335 39.2675C105.083 39.8825 107.305 40.2097 110 40.2491C112.696 40.2097 114.917 39.8825 116.665 39.2675C118.412 38.6525 119.316 38.0422 119.375 37.4366C119.356 37.0066 118.838 36.5525 117.822 36.0744C116.807 35.5962 115.449 35.2106 113.75 34.9175V33.0134C115.977 33.3453 117.774 33.9069 119.141 34.6981C120.507 35.4894 121.211 36.4025 121.25 37.4375C121.172 38.7656 120.073 39.8691 117.954 40.7478C115.834 41.6266 113.183 42.0856 110 42.125C106.816 42.0856 104.165 41.6266 102.046 40.7478C99.9275 39.8691 98.8287 38.7656 98.75 37.4375C98.7894 36.4025 99.4925 35.4894 100.859 34.6981C102.226 33.9069 104.023 33.3453 106.25 33.0134Z" fill="#08080A" fill-opacity="0.96"/>
<circle cx="190" cy="30" r="30" fill="#F76D6D" fill-opacity="0.2"/>
<path d="M178.75 26.25V39.375H201.25V26.25H178.75ZM177.812 24.375H202.188C202.461 24.375 202.686 24.4628 202.862 24.6384C203.037 24.8141 203.125 25.0388 203.125 25.3125V40.3125C203.125 40.5862 203.037 40.8109 202.862 40.9866C202.686 41.1622 202.461 41.25 202.188 41.25H177.812C177.539 41.25 177.314 41.1622 177.138 40.9866C176.963 40.8109 176.875 40.5862 176.875 40.3125V25.3125C176.875 25.0388 176.963 24.8141 177.138 24.6384C177.314 24.4628 177.539 24.375 177.812 24.375ZM179.688 20.625H200.312V22.5H179.688V20.625ZM182.5 16.875H197.5V18.75H182.5V16.875Z" fill="#08080A" fill-opacity="0.96"/>
<g clip-path="url(#clip1_278_3029)">
<path d="M40 159.801C42.6719 159.801 42.9883 159.812 44.0391 159.859C45.0156 159.902 45.543 160.066 45.8945 160.203C46.3594 160.383 46.6953 160.602 47.043 160.949C47.3945 161.301 47.6094 161.633 47.7891 162.098C47.9258 162.449 48.0898 162.98 48.1328 163.953C48.1797 165.008 48.1914 165.324 48.1914 167.992C48.1914 170.664 48.1797 170.98 48.1328 172.031C48.0898 173.008 47.9258 173.535 47.7891 173.887C47.6094 174.352 47.3906 174.688 47.043 175.035C46.6914 175.387 46.3594 175.602 45.8945 175.781C45.543 175.918 45.0117 176.082 44.0391 176.125C42.9844 176.172 42.668 176.184 40 176.184C37.3281 176.184 37.0117 176.172 35.9609 176.125C34.9844 176.082 34.457 175.918 34.1055 175.781C33.6406 175.602 33.3047 175.383 32.957 175.035C32.6055 174.684 32.3906 174.352 32.2109 173.887C32.0742 173.535 31.9102 173.004 31.8672 172.031C31.8203 170.977 31.8086 170.66 31.8086 167.992C31.8086 165.32 31.8203 165.004 31.8672 163.953C31.9102 162.977 32.0742 162.449 32.2109 162.098C32.3906 161.633 32.6094 161.297 32.957 160.949C33.3086 160.598 33.6406 160.383 34.1055 160.203C34.457 160.066 34.9883 159.902 35.9609 159.859C37.0117 159.812 37.3281 159.801 40 159.801ZM40 158C37.2852 158 36.9453 158.012 35.8789 158.059C34.8164 158.105 34.0859 158.277 33.4531 158.523C32.793 158.781 32.2344 159.121 31.6797 159.68C31.1211 160.234 30.7813 160.793 30.5234 161.449C30.2773 162.086 30.1055 162.812 30.0586 163.875C30.0117 164.945 30 165.285 30 168C30 170.715 30.0117 171.055 30.0586 172.121C30.1055 173.184 30.2773 173.914 30.5234 174.547C30.7813 175.207 31.1211 175.766 31.6797 176.32C32.2344 176.875 32.793 177.219 33.4492 177.473C34.0859 177.719 34.8125 177.891 35.875 177.938C36.9414 177.984 37.2813 177.996 39.9961 177.996C42.7109 177.996 43.0508 177.984 44.1172 177.938C45.1797 177.891 45.9102 177.719 46.543 177.473C47.1992 177.219 47.7578 176.875 48.3125 176.32C48.8672 175.766 49.2109 175.207 49.4648 174.551C49.7109 173.914 49.8828 173.188 49.9297 172.125C49.9766 171.059 49.9883 170.719 49.9883 168.004C49.9883 165.289 49.9766 164.949 49.9297 163.883C49.8828 162.82 49.7109 162.09 49.4648 161.457C49.2188 160.793 48.8789 160.234 48.3203 159.68C47.7656 159.125 47.207 158.781 46.5508 158.527C45.9141 158.281 45.1875 158.109 44.125 158.063C43.0547 158.012 42.7148 158 40 158Z" fill="black"/>
<path d="M40 162.863C37.1641 162.863 34.8633 165.164 34.8633 168C34.8633 170.836 37.1641 173.137 40 173.137C42.8359 173.137 45.1367 170.836 45.1367 168C45.1367 165.164 42.8359 162.863 40 162.863ZM40 171.332C38.1602 171.332 36.668 169.84 36.668 168C36.668 166.16 38.1602 164.668 40 164.668C41.8398 164.668 43.332 166.16 43.332 168C43.332 169.84 41.8398 171.332 40 171.332Z" fill="black"/>
<path d="M46.5391 162.66C46.5391 163.324 46 163.859 45.3398 163.859C44.6758 163.859 44.1406 163.32 44.1406 162.66C44.1406 161.996 44.6797 161.461 45.3398 161.461C46 161.461 46.5391 162 46.5391 162.66Z" fill="black"/>
</g>
<g clip-path="url(#clip2_278_3029)">
<path d="M20 168C20 162.477 15.5229 158 10 158C4.47715 158 0 162.477 0 168C0 172.991 3.65684 177.128 8.4375 177.879V170.891H5.89844V168H8.4375V165.797C8.4375 163.291 9.93047 161.906 12.2146 161.906C13.3084 161.906 14.4531 162.102 14.4531 162.102V164.563H13.1922C11.95 164.563 11.5625 165.333 11.5625 166.125V168H14.3359L13.8926 170.891H11.5625V177.879C16.3432 177.128 20 172.991 20 168Z" fill="black"/>
</g>
<path d="M163.975 316.948V311L169.202 313.974L163.975 316.948Z" fill="#FEFEFE"/>
<path fill-rule="evenodd" clip-rule="evenodd" d="M99.9965 158C97.6225 158.001 95.3263 158.842 93.5186 160.372C91.7109 161.902 90.5095 164.022 90.1292 166.352C89.7489 168.682 90.2145 171.07 91.4428 173.09C92.6711 175.11 94.5819 176.63 96.8337 177.377C97.3304 177.47 97.5176 177.162 97.5176 176.9C97.5176 176.638 97.5076 175.879 97.5043 175.049C94.7224 175.65 94.1346 173.875 94.1346 173.875C93.6808 172.723 93.0251 172.42 93.0251 172.42C92.1177 171.804 93.093 171.816 93.093 171.816C94.0981 171.886 94.6264 172.841 94.6264 172.841C95.5172 174.361 96.9661 173.922 97.5358 173.665C97.6252 173.021 97.8852 172.583 98.1717 172.334C95.9494 172.084 93.6146 171.231 93.6146 167.421C93.6008 166.433 93.9696 165.478 94.6446 164.752C94.5419 164.502 94.1991 163.491 94.7423 162.118C94.7423 162.118 95.5818 161.851 97.4927 163.137C99.1318 162.691 100.861 162.691 102.5 163.137C104.409 161.851 105.247 162.118 105.247 162.118C105.792 163.488 105.449 164.499 105.347 164.752C106.024 165.478 106.393 166.435 106.378 167.424C106.378 171.243 104.039 172.084 101.813 172.329C102.171 172.639 102.49 173.243 102.49 174.172C102.49 175.502 102.479 176.572 102.479 176.9C102.479 177.165 102.659 177.475 103.166 177.377C105.418 176.63 107.329 175.11 108.557 173.089C109.785 171.069 110.251 168.68 109.87 166.35C109.489 164.02 108.287 161.9 106.479 160.371C104.671 158.841 102.374 158 99.9998 158H99.9965Z" fill="black"/>
<path d="M126.94 166.39C126.37 166.39 125.92 166.89 125.92 167.5C125.92 168.11 126.38 168.61 126.94 168.61C127.51 168.61 127.96 168.11 127.96 167.5C127.97 166.89 127.51 166.39 126.94 166.39ZM130.59 166.39C130.02 166.39 129.57 166.89 129.57 167.5C129.57 168.11 130.03 168.61 130.59 168.61C131.16 168.61 131.61 168.11 131.61 167.5C131.61 166.89 131.16 166.39 130.59 166.39Z" fill="black"/>
<path d="M135.45 158H122.05C120.92 158 120 158.92 120 160.06V173.58C120 174.72 120.92 175.64 122.05 175.64H133.39L132.86 173.79L134.14 174.98L135.35 176.1L137.5 178V160.06C137.5 158.92 136.58 158 135.45 158ZM131.59 171.06C131.59 171.06 131.23 170.63 130.93 170.25C132.24 169.88 132.74 169.06 132.74 169.06C132.33 169.33 131.94 169.52 131.59 169.65C131.09 169.86 130.61 170 130.14 170.08C129.18 170.26 128.3 170.21 127.55 170.07C126.98 169.96 126.49 169.8 126.08 169.64C125.85 169.55 125.6 169.44 125.35 169.3C125.32 169.28 125.29 169.27 125.26 169.25C125.24 169.24 125.23 169.23 125.22 169.22C125.04 169.12 124.94 169.05 124.94 169.05C124.94 169.05 125.42 169.85 126.69 170.23C126.39 170.61 126.02 171.06 126.02 171.06C123.81 170.99 122.97 169.54 122.97 169.54C122.97 166.32 124.41 163.71 124.41 163.71C125.85 162.63 127.22 162.66 127.22 162.66L127.32 162.78C125.52 163.3 124.69 164.09 124.69 164.09C124.69 164.09 124.91 163.97 125.28 163.8C126.35 163.33 127.2 163.2 127.55 163.17C127.61 163.16 127.66 163.15 127.72 163.15C128.33 163.07 129.02 163.05 129.74 163.13C130.69 163.24 131.71 163.52 132.75 164.09C132.75 164.09 131.96 163.34 130.26 162.82L130.4 162.66C130.4 162.66 131.77 162.63 133.21 163.71C133.21 163.71 134.65 166.32 134.65 169.54C134.65 169.54 133.8 170.99 131.59 171.06V171.06Z" fill="black"/>
<circle cx="107" cy="107" r="27" fill="#4857EC" fill-opacity="0.1"/>
<path d="M111.08 111.423C109.882 112.532 108.258 113.155 106.564 113.155C104.871 113.155 103.246 112.532 102.049 111.423M101.774 104.285H101.79M111.355 104.285H111.371M120.935 107.242C120.935 108.99 120.564 110.72 119.841 112.334C119.119 113.949 118.061 115.416 116.726 116.651C115.392 117.887 113.807 118.867 112.064 119.536C110.32 120.205 108.452 120.549 106.564 120.549C104.677 120.549 102.808 120.205 101.065 119.536C99.3212 118.867 97.737 117.887 96.4025 116.651C95.0681 115.416 94.0095 113.949 93.2873 112.334C92.5651 110.72 92.1934 108.99 92.1934 107.242C92.1934 103.713 93.7074 100.328 96.4025 97.833C99.0976 95.3375 102.753 93.9355 106.564 93.9355C110.376 93.9355 114.031 95.3375 116.726 97.833C119.421 100.328 120.935 103.713 120.935 107.242Z" stroke="#4857EC" stroke-width="3" stroke-linecap="round" stroke-linejoin="round"/>
<circle cx="187" cy="107" r="27" fill="#FFD6D6" fill-opacity="0.5"/>
<path d="M191.08 111.423C189.882 112.532 188.258 113.155 186.564 113.155C184.871 113.155 183.246 112.532 182.049 111.423M181.774 104.285H181.79M191.355 104.285H191.371M200.935 107.242C200.935 108.99 200.564 110.72 199.841 112.334C199.119 113.949 198.061 115.416 196.726 116.651C195.392 117.887 193.807 118.867 192.064 119.536C190.32 120.205 188.452 120.549 186.564 120.549C184.677 120.549 182.808 120.205 181.065 119.536C179.321 118.867 177.737 117.887 176.403 116.651C175.068 115.416 174.009 113.949 173.287 112.334C172.565 110.72 172.193 108.99 172.193 107.242C172.193 103.713 173.707 100.328 176.403 97.833C179.098 95.3375 182.753 93.9355 186.564 93.9355C190.376 93.9355 194.031 95.3375 196.726 97.833C199.421 100.328 200.935 103.713 200.935 107.242Z" stroke="#C66464" stroke-width="3" stroke-linecap="round" stroke-linejoin="round"/>
<circle cx="27" cy="107" r="27" fill="#BCFF87" fill-opacity="0.5"/>
<path d="M39.8414 112.334C40.5636 110.72 40.9353 108.99 40.9353 107.242C40.9353 103.713 39.4212 100.328 36.7261 97.833C34.0311 95.3375 30.3757 93.9355 26.5643 93.9355C22.7529 93.9355 19.0976 95.3375 16.4025 97.833C13.7074 100.328 12.1934 103.713 12.1934 107.242C12.1934 108.99 12.5651 110.72 13.2873 112.334C14.0095 113.949 15.0681 115.416 16.4025 116.651C17.737 117.887 19.3212 118.867 21.0648 119.536C22.8084 120.205 24.6771 120.549 26.5643 120.549C28.4515 120.549 30.3203 120.205 32.0639 119.536C33.8074 118.867 35.3917 117.887 36.7261 116.651C38.0606 115.416 39.1192 113.949 39.8414 112.334Z" fill="#E8FFD6"/>
<path d="M31.08 111.423C29.8822 112.532 28.258 113.155 26.5643 113.155C24.8707 113.155 23.2464 112.532 22.0486 111.423M21.774 104.285H21.79M31.3547 104.285H31.3706M40.9353 107.242C40.9353 108.99 40.5636 110.72 39.8414 112.334C39.1192 113.949 38.0606 115.416 36.7261 116.651C35.3917 117.887 33.8074 118.867 32.0639 119.536C30.3203 120.205 28.4515 120.549 26.5643 120.549C24.6771 120.549 22.8084 120.205 21.0648 119.536C19.3212 118.867 17.737 117.887 16.4025 116.651C15.0681 115.416 14.0095 113.949 13.2873 112.334C12.5651 110.72 12.1934 108.99 12.1934 107.242C12.1934 103.713 13.7074 100.328 16.4025 97.833C19.0976 95.3375 22.7529 93.9355 26.5643 93.9355C30.3757 93.9355 34.0311 95.3375 36.7261 97.833C39.4212 100.328 40.9353 103.713 40.9353 107.242Z" stroke="#6AAF35" stroke-width="3" stroke-linecap="round" stroke-linejoin="round"/>
<path d="M179.641 159.537C179.39 158.821 178.296 158.821 178.044 159.537L176.768 163.172C176.713 163.328 176.606 163.464 176.463 163.561C176.319 163.657 176.146 163.709 175.969 163.709H171.842C171.029 163.709 170.689 164.673 171.348 165.117L174.687 167.363C174.831 167.459 174.938 167.595 174.992 167.752C175.047 167.908 175.047 168.076 174.992 168.232L173.717 171.867C173.465 172.584 174.351 173.18 175.009 172.737L178.349 170.491C178.492 170.394 178.665 170.342 178.842 170.342C179.02 170.342 179.193 170.394 179.336 170.491L182.676 172.737C183.334 173.18 184.22 172.584 183.968 171.867L182.693 168.232C182.638 168.076 182.638 167.908 182.693 167.752C182.747 167.595 182.854 167.459 182.998 167.363L186.337 165.117C186.995 164.673 186.657 163.709 185.843 163.709H181.715C181.538 163.709 181.365 163.657 181.222 163.56C181.079 163.464 180.972 163.328 180.917 163.172L179.641 159.537Z" stroke="#F9C94E" stroke-linecap="round" stroke-linejoin="round"/>
<path d="M160.641 159.537C160.39 158.821 159.296 158.821 159.044 159.537L157.768 163.172C157.713 163.328 157.606 163.464 157.463 163.561C157.319 163.657 157.146 163.709 156.969 163.709H152.842C152.029 163.709 151.689 164.673 152.348 165.117L155.687 167.363C155.831 167.459 155.938 167.595 155.992 167.752C156.047 167.908 156.047 168.076 155.992 168.232L154.717 171.867C154.465 172.584 155.351 173.18 156.009 172.737L159.349 170.491C159.492 170.394 159.665 170.342 159.842 170.342C160.02 170.342 160.193 170.394 160.336 170.491L163.676 172.737C164.334 173.18 165.22 172.584 164.968 171.867L163.693 168.232C163.638 168.076 163.638 167.908 163.693 167.752C163.747 167.595 163.854 167.459 163.998 167.363L167.337 165.117C167.995 164.673 167.657 163.709 166.843 163.709H162.715C162.538 163.709 162.365 163.657 162.222 163.56C162.079 163.464 161.972 163.328 161.917 163.172L160.641 159.537Z" fill="#F9C94E"/>
<path d="M79.5818 163.2C79.4687 162.775 79.2459 162.386 78.9356 162.074C78.6253 161.762 78.2384 161.536 77.8136 161.42C76.25 161 70 161 70 161C70 161 63.75 161 62.1864 161.42C61.7616 161.536 61.3747 161.762 61.0644 162.074C60.7541 162.386 60.5313 162.775 60.4182 163.2C60 164.77 60 168.045 60 168.045C60 168.045 60 171.32 60.4182 172.891C60.5313 173.316 60.7541 173.705 61.0644 174.017C61.3747 174.329 61.7616 174.555 62.1864 174.67C63.75 175.091 70 175.091 70 175.091C70 175.091 76.25 175.091 77.8136 174.67C78.2384 174.555 78.6253 174.329 78.9356 174.017C79.2459 173.705 79.4687 173.316 79.5818 172.891C80 171.32 80 168.045 80 168.045C80 168.045 80 164.77 79.5818 163.2Z" fill="black"/>
<path d="M67.9546 171.02V165.072L73.1819 168.046L67.9546 171.02Z" fill="#FEFEFE"/>
</g>
<defs>
<clipPath id="clip0_278_3029">
<rect width="500" height="500" fill="white"/>
</clipPath>
<clipPath id="clip1_278_3029">
<rect width="20" height="20" fill="white" transform="translate(30 158)"/>
</clipPath>
<clipPath id="clip2_278_3029">
<rect width="20" height="20" fill="white" transform="translate(0 158)"/>
</clipPath>
</defs>
</svg>
