<svg width="360" height="60" viewBox="0 0 360 60" fill="none" xmlns="http://www.w3.org/2000/svg">
<circle cx="90" cy="30" r="30" fill="#0CB0F2"/>
<circle cx="95.5" cy="22.5" r="2.5" stroke="white" stroke-width="1.5"/>
<circle cx="83.5" cy="29.5" r="2.5" stroke="white" stroke-width="1.5"/>
<path d="M93 24L86 28" stroke="white" stroke-width="1.5" stroke-linecap="round" stroke-linejoin="round"/>
<path d="M85.5 31.5L93 36" stroke="white" stroke-width="1.5" stroke-linecap="round" stroke-linejoin="round"/>
<circle cx="95.5" cy="37.5" r="2.5" stroke="white" stroke-width="1.5"/>
<circle cx="30" cy="30" r="30" fill="#7866FF"/>
<circle cx="35.5" cy="22.5" r="2.5" stroke="white" stroke-width="1.5"/>
<circle cx="23.5" cy="29.5" r="2.5" stroke="white" stroke-width="1.5"/>
<path d="M33 24L26 28" stroke="white" stroke-width="1.5" stroke-linecap="round" stroke-linejoin="round"/>
<path d="M25.5 31.5L33 36" stroke="white" stroke-width="1.5" stroke-linecap="round" stroke-linejoin="round"/>
<circle cx="35.5" cy="37.5" r="2.5" stroke="white" stroke-width="1.5"/>
<circle cx="150" cy="30" r="30" fill="#2FEFB1"/>
<circle cx="155.5" cy="22.5" r="2.5" stroke="white" stroke-width="1.5"/>
<circle cx="143.5" cy="29.5" r="2.5" stroke="white" stroke-width="1.5"/>
<path d="M153 24L146 28" stroke="white" stroke-width="1.5" stroke-linecap="round" stroke-linejoin="round"/>
<path d="M145.5 31.5L153 36" stroke="white" stroke-width="1.5" stroke-linecap="round" stroke-linejoin="round"/>
<circle cx="155.5" cy="37.5" r="2.5" stroke="white" stroke-width="1.5"/>
<circle cx="270" cy="30" r="30" fill="#FF7262"/>
<circle cx="275.5" cy="22.5" r="2.5" stroke="white" stroke-width="1.5"/>
<circle cx="263.5" cy="29.5" r="2.5" stroke="white" stroke-width="1.5"/>
<path d="M273 24L266 28" stroke="white" stroke-width="1.5" stroke-linecap="round" stroke-linejoin="round"/>
<path d="M265.5 31.5L273 36" stroke="white" stroke-width="1.5" stroke-linecap="round" stroke-linejoin="round"/>
<circle cx="275.5" cy="37.5" r="2.5" stroke="white" stroke-width="1.5"/>
<circle cx="210" cy="30" r="30" fill="#F9C94E"/>
<circle cx="215.5" cy="22.5" r="2.5" stroke="white" stroke-width="1.5"/>
<circle cx="203.5" cy="29.5" r="2.5" stroke="white" stroke-width="1.5"/>
<path d="M213 24L206 28" stroke="white" stroke-width="1.5" stroke-linecap="round" stroke-linejoin="round"/>
<path d="M205.5 31.5L213 36" stroke="white" stroke-width="1.5" stroke-linecap="round" stroke-linejoin="round"/>
<circle cx="215.5" cy="37.5" r="2.5" stroke="white" stroke-width="1.5"/>
<circle cx="330" cy="30" r="30" fill="#FE315D"/>
<circle cx="335.5" cy="22.5" r="2.5" stroke="white" stroke-width="1.5"/>
<circle cx="323.5" cy="29.5" r="2.5" stroke="white" stroke-width="1.5"/>
<path d="M333 24L326 28" stroke="white" stroke-width="1.5" stroke-linecap="round" stroke-linejoin="round"/>
<path d="M325.5 31.5L333 36" stroke="white" stroke-width="1.5" stroke-linecap="round" stroke-linejoin="round"/>
<circle cx="335.5" cy="37.5" r="2.5" stroke="white" stroke-width="1.5"/>
</svg>
