<svg width="250" height="36" viewBox="0 0 250 36" fill="none" xmlns="http://www.w3.org/2000/svg">
<rect width="250" height="36" fill="#FEFDFF"/>
<path d="M168 9C163.029 9 159 13.0289 159 18C159 21.8145 161.373 25.0699 164.72 26.3812C164.643 25.6676 164.569 24.5777 164.752 23.8008C164.917 23.0977 165.806 19.3289 165.806 19.3289C165.806 19.3289 165.536 18.791 165.536 17.993C165.536 16.7414 166.26 15.8063 167.163 15.8063C167.93 15.8063 168.302 16.3828 168.302 17.0754C168.302 17.8488 167.81 19.002 167.557 20.0707C167.346 20.9672 168.007 21.6984 168.889 21.6984C170.489 21.6984 171.72 20.0109 171.72 17.5781C171.72 15.423 170.173 13.9148 167.961 13.9148C165.402 13.9148 163.897 15.8344 163.897 17.8207C163.897 18.5941 164.196 19.4238 164.569 19.8738C164.643 19.9617 164.653 20.0426 164.632 20.1305C164.565 20.4152 164.411 21.027 164.382 21.15C164.344 21.3152 164.252 21.3504 164.08 21.2695C162.955 20.7457 162.252 19.1039 162.252 17.782C162.252 14.9414 164.316 12.3363 168.197 12.3363C171.319 12.3363 173.745 14.5617 173.745 17.5359C173.745 20.6367 171.79 23.1328 169.076 23.1328C168.165 23.1328 167.307 22.6582 167.012 22.0992C167.012 22.0992 166.562 23.8184 166.453 24.2402C166.249 25.0207 165.701 26.0016 165.335 26.5992C166.179 26.8594 167.072 27 168 27C172.971 27 177 22.9711 177 18C177 13.0289 172.971 9 168 9Z" fill="#CCCCCC"/>
<g clip-path="url(#clip0_171_4030)">
<path d="M118 10.6207C120.405 10.6207 120.689 10.6312 121.635 10.6734C122.514 10.7121 122.989 10.8598 123.305 10.9828C123.723 11.1445 124.026 11.3414 124.339 11.6543C124.655 11.9707 124.848 12.2695 125.01 12.6879C125.133 13.0043 125.281 13.4824 125.32 14.3578C125.362 15.307 125.372 15.5918 125.372 17.993C125.372 20.3977 125.362 20.6824 125.32 21.6281C125.281 22.507 125.133 22.9816 125.01 23.298C124.848 23.7164 124.652 24.0187 124.339 24.3316C124.022 24.648 123.723 24.8414 123.305 25.0031C122.989 25.1262 122.511 25.2738 121.635 25.3125C120.686 25.3547 120.401 25.3652 118 25.3652C115.595 25.3652 115.311 25.3547 114.365 25.3125C113.486 25.2738 113.011 25.1262 112.695 25.0031C112.277 24.8414 111.974 24.6445 111.661 24.3316C111.345 24.0152 111.152 23.7164 110.99 23.298C110.867 22.9816 110.719 22.5035 110.68 21.6281C110.638 20.6789 110.628 20.3941 110.628 17.993C110.628 15.5883 110.638 15.3035 110.68 14.3578C110.719 13.4789 110.867 13.0043 110.99 12.6879C111.152 12.2695 111.348 11.9672 111.661 11.6543C111.978 11.3379 112.277 11.1445 112.695 10.9828C113.011 10.8598 113.489 10.7121 114.365 10.6734C115.311 10.6312 115.595 10.6207 118 10.6207ZM118 9C115.557 9 115.251 9.01055 114.291 9.05273C113.335 9.09492 112.677 9.24961 112.108 9.47109C111.514 9.70312 111.011 10.009 110.512 10.5117C110.009 11.0109 109.703 11.5137 109.471 12.1043C109.25 12.6773 109.095 13.3312 109.053 14.2875C109.011 15.2508 109 15.5566 109 18C109 20.4434 109.011 20.7492 109.053 21.709C109.095 22.6652 109.25 23.3227 109.471 23.8922C109.703 24.4863 110.009 24.9891 110.512 25.4883C111.011 25.9875 111.514 26.2969 112.104 26.5254C112.677 26.7469 113.331 26.9016 114.288 26.9437C115.247 26.9859 115.553 26.9965 117.996 26.9965C120.44 26.9965 120.746 26.9859 121.705 26.9437C122.662 26.9016 123.319 26.7469 123.889 26.5254C124.479 26.2969 124.982 25.9875 125.481 25.4883C125.98 24.9891 126.29 24.4863 126.518 23.8957C126.74 23.3227 126.895 22.6687 126.937 21.7125C126.979 20.7527 126.989 20.4469 126.989 18.0035C126.989 15.5602 126.979 15.2543 126.937 14.2945C126.895 13.3383 126.74 12.6809 126.518 12.1113C126.297 11.5137 125.991 11.0109 125.488 10.5117C124.989 10.0125 124.486 9.70312 123.896 9.47461C123.323 9.25312 122.669 9.09844 121.713 9.05625C120.749 9.01055 120.443 9 118 9Z" fill="#CCCCCC"/>
<path d="M118 13.377C115.448 13.377 113.377 15.4477 113.377 18C113.377 20.5523 115.448 22.623 118 22.623C120.552 22.623 122.623 20.5523 122.623 18C122.623 15.4477 120.552 13.377 118 13.377ZM118 20.9988C116.344 20.9988 115.001 19.6559 115.001 18C115.001 16.3441 116.344 15.0012 118 15.0012C119.656 15.0012 120.999 16.3441 120.999 18C120.999 19.6559 119.656 20.9988 118 20.9988Z" fill="#CCCCCC"/>
<path d="M123.885 13.1942C123.885 13.7918 123.4 14.2735 122.806 14.2735C122.208 14.2735 121.727 13.7883 121.727 13.1942C121.727 12.5965 122.212 12.1149 122.806 12.1149C123.4 12.1149 123.885 12.6 123.885 13.1942Z" fill="#CCCCCC"/>
</g>
<g clip-path="url(#clip1_171_4030)">
<path d="M214.663 25.3125C221.453 25.3125 225.169 19.6851 225.169 14.8065C225.169 14.6483 225.165 14.4865 225.158 14.3283C225.881 13.8057 226.505 13.1583 227 12.4165C226.327 12.716 225.612 12.9116 224.88 12.9966C225.651 12.5347 226.228 11.8092 226.504 10.9544C225.779 11.384 224.987 11.687 224.16 11.8505C223.603 11.2587 222.867 10.8669 222.065 10.7356C221.263 10.6043 220.44 10.7408 219.723 11.1241C219.007 11.5074 218.436 12.1161 218.1 12.856C217.764 13.596 217.682 14.426 217.865 15.2178C216.397 15.1441 214.961 14.7628 213.65 14.0986C212.339 13.4344 211.182 12.5021 210.255 11.3622C209.783 12.175 209.639 13.1368 209.851 14.0521C210.064 14.9675 210.616 15.7676 211.397 16.2901C210.811 16.2714 210.237 16.1136 209.724 15.8295V15.8752C209.724 16.7282 210.019 17.555 210.559 18.2151C211.099 18.8753 211.851 19.328 212.687 19.4963C212.144 19.6449 211.574 19.6666 211.021 19.5596C211.257 20.2931 211.716 20.9347 212.334 21.3948C212.952 21.8549 213.699 22.1105 214.469 22.126C213.161 23.1534 211.546 23.7107 209.882 23.708C209.587 23.7076 209.293 23.6895 209 23.6539C210.69 24.7379 212.655 25.3136 214.663 25.3125Z" fill="#CCCCCC"/>
</g>
<g clip-path="url(#clip2_171_4030)">
<path d="M77 18C77 13.0294 72.9706 9 68 9C63.0294 9 59 13.0294 59 18C59 22.4921 62.2912 26.2155 66.5938 26.8907V20.6016H64.3086V18H66.5938V16.0172C66.5938 13.7616 67.9374 12.5156 69.9932 12.5156C70.9776 12.5156 72.0078 12.6914 72.0078 12.6914V14.9062H70.873C69.755 14.9062 69.4062 15.6001 69.4062 16.3125V18H71.9023L71.5033 20.6016H69.4062V26.8907C73.7088 26.2155 77 22.4921 77 18Z" fill="#CCCCCC"/>
</g>
<path d="M18 12L15.6 14.4L16.8 15.6L19.2 13.2C20.19 12.21 21.81 12.21 22.8 13.2C23.79 14.19 23.79 15.81 22.8 16.8L20.4 19.2L21.6 20.4L24 18C25.656 16.344 25.656 13.656 24 12C22.344 10.344 19.656 10.344 18 12ZM19.2 20.4L16.8 22.8C15.81 23.79 14.19 23.79 13.2 22.8C12.21 21.81 12.21 20.19 13.2 19.2L15.6 16.8L14.4 15.6L12 18C10.344 19.656 10.344 22.344 12 24C13.656 25.656 16.344 25.656 18 24L20.4 21.6L19.2 20.4ZM15 19.8L19.8 15L21 16.2L16.2 21L15 19.8Z" fill="#CCCCCC"/>
<defs>
<clipPath id="clip0_171_4030">
<rect width="18" height="18" fill="white" transform="translate(109 9)"/>
</clipPath>
<clipPath id="clip1_171_4030">
<rect width="18" height="18" fill="white" transform="translate(209 9)"/>
</clipPath>
<clipPath id="clip2_171_4030">
<rect width="18" height="18" fill="white" transform="translate(59 9)"/>
</clipPath>
</defs>
</svg>
